<?xml version="1.0" encoding="utf-8"?>
<!-- Generator: Adobe Illustrator 27.8.1, SVG Export Plug-In . SVG Version: 6.00 Build 0)  -->
<svg version="1.1" id="Layer_1" xmlns="http://www.w3.org/2000/svg" xmlns:xlink="http://www.w3.org/1999/xlink" x="0px" y="0px"
	 viewBox="0 0 800 800" style="enable-background:new 0 0 800 800;" xml:space="preserve">
<style type="text/css">
	.st0{fill:#FFFFFF;}
</style>
<path class="st0" d="M389.2,489.9H280.7l-22.1,70.3c-0.6,2.6-3,4.5-5.6,4.3h-54.9c-3.1,0-4.2-1.8-3.3-5.3l93.9-277.4
	c0.9-2.9,1.9-6.2,2.8-9.9c1.2-6.4,1.9-13,1.9-19.5c-0.3-1.9,1.4-3.6,3.3-3.4h74.7c2.2,0,3.4,0.8,3.8,2.4l106.6,308.2
	c0.9,3.2,0,4.8-2.8,4.8h-61c-2.1,0.2-4.2-1.2-4.7-3.4L389.2,489.9z M297.6,429.2h74.2c-12.2-41.7-25.9-82.8-37.1-124.7
	C322.7,346.5,309.6,388.4,297.6,429.2z"/>
<path class="st0" d="M545.1,300.1c-4.8,0.2-9.6-0.6-14-2.5c-4.4-1.8-8.5-4.6-11.8-8.1c-3.3-3.7-5.9-8-7.6-12.7
	c-1.7-4.7-2.5-9.7-2.3-14.7c-0.2-5,0.7-9.9,2.5-14.5c1.8-4.6,4.6-8.8,8.1-12.2c3.5-3.4,7.5-6.1,12-7.9c4.5-1.8,9.2-2.6,14-2.5
	c11.3,0,20.1,3.5,26.5,10.4c3.2,3.6,5.8,7.8,7.4,12.4c1.6,4.6,2.4,9.5,2.2,14.3c0.2,5-0.6,10.1-2.3,14.8c-1.7,4.7-4.4,9-7.8,12.7
	c-3.5,3.6-7.8,6.4-12.4,8.2C555,299.6,550.1,300.4,545.1,300.1z M512.7,559.7V329.5c0-2.9,1.2-4.3,3.8-4.3h57.8
	c2.5,0,3.8,1.4,3.8,4.3v230.2c0,3.2-1.3,4.8-3.8,4.8h-57.3C514.1,564.6,512.7,563,512.7,559.7z"/>
</svg>
